<svg width="88" height="57" viewBox="0 0 88 57" fill="none" xmlns="http://www.w3.org/2000/svg">
<path d="M0 24.2872V0.410254H39.7949V8.36923H7.95897V16.3282H31.8359V24.2872H39.7949V48.1641H31.8359V56.1231H7.95897V48.1641H0V40.2051H7.95897V48.1641H31.8359V24.2872H0Z" fill="white"/>
<path d="M55.7128 8.36923V0.410254H63.6718V8.36923H71.6308V16.3282H79.5897V8.36923H87.5487V16.3282H79.5897V24.2872H71.6308V32.2462H79.5897V40.2051H87.5487V48.1641H79.5897V56.1231H71.6308V48.1641H63.6718V40.2051H55.7128V48.1641H47.7538V40.2051H55.7128V32.2462H63.6718V24.2872H55.7128V16.3282H47.7538V8.36923H55.7128ZM63.6718 16.3282V8.36923H55.7128V16.3282H63.6718V24.2872H71.6308V16.3282H63.6718ZM71.6308 40.2051V32.2462H63.6718V40.2051H71.6308V48.1641H79.5897V40.2051H71.6308Z" fill="#7867B1"/>
</svg>
