<svg width="1769" height="281" viewBox="0 0 1769 281" fill="none" xmlns="http://www.w3.org/2000/svg">
<path d="M1255.64 122.667C1252.47 125.625 1248.73 127.95 1244.51 129.711C1240.28 131.472 1236.12 132.74 1232.04 133.656C1227.95 134.572 1224.22 135.065 1220.77 135.276C1217.39 135.487 1214.99 135.558 1213.58 135.558V98.6451C1214.85 98.6451 1217.39 98.2928 1221.05 97.518C1224.78 96.7431 1228.94 95.4046 1233.66 93.5026C1238.31 91.6006 1243.17 88.9237 1248.17 85.6129C1253.17 82.302 1257.61 78.1457 1261.41 73.1442H1301.78V207.693H1255.64V122.667ZM1444.29 157.677C1440.2 158.171 1435.62 158.734 1430.62 159.439C1425.62 160.073 1420.83 160.847 1416.18 161.834C1411.53 162.82 1407.52 164.017 1404.06 165.567C1400.61 167.117 1398.43 169.089 1397.51 171.555L1508.25 171.555V207.693L1332 207.693V205.227C1332 194.097 1333.83 184.446 1337.56 176.416C1341.3 168.315 1346.16 161.481 1352.15 155.775C1358.2 150.069 1365.04 145.42 1372.79 141.827C1380.54 138.235 1388.43 135.347 1396.46 133.092C1404.49 130.838 1412.38 129.077 1420.13 127.809C1427.87 126.541 1434.78 125.344 1440.77 124.357C1446.75 123.301 1451.68 122.314 1455.35 121.258C1459.08 120.201 1460.91 118.792 1460.91 116.82C1460.91 115.059 1460.56 113.65 1459.86 112.593C1459.15 111.536 1457.6 110.832 1455.14 110.409C1452.67 109.987 1449.15 109.705 1444.5 109.564C1439.85 109.423 1433.58 109.353 1425.76 109.353H1403.29C1399.41 109.353 1396.24 109.494 1393.78 109.846C1391.31 110.198 1389.2 110.761 1387.65 111.607C1386.03 112.452 1384.83 113.509 1383.99 114.847C1383.14 116.186 1382.58 117.806 1382.16 119.778H1336.23C1337.28 112.452 1338.83 105.901 1340.95 100.195C1343.06 94.4184 1346.23 89.5577 1350.39 85.6129C1354.54 81.668 1360.04 78.5684 1366.8 76.4551C1373.56 74.3418 1382.23 73.2851 1392.72 73.2851L1444.22 73.2851C1453.3 73.2851 1461.19 73.9191 1467.89 75.1871C1474.58 76.4551 1480.21 78.2162 1484.79 80.4C1489.44 82.5837 1493.18 85.1197 1496.13 88.0784C1499.09 91.0371 1501.35 94.1366 1502.97 97.3771C1504.59 100.618 1505.64 104.069 1506.21 107.592C1506.77 111.114 1507.05 114.495 1507.05 117.665C1507.05 121.61 1506.35 125.625 1504.94 129.57C1503.53 133.515 1500.57 137.319 1496.06 140.912C1491.56 144.504 1485.22 147.745 1476.9 150.704C1468.8 153.521 1457.88 155.916 1444.29 157.677ZM1582.85 209.595C1571.72 209.595 1562.42 208.327 1554.96 205.721C1547.49 203.185 1541.5 199.592 1536.99 195.083C1532.41 190.505 1529.17 185.221 1527.06 179.093C1525.02 173.034 1523.82 166.483 1523.4 159.579H1567.99C1568.34 161.904 1569.04 163.877 1570.03 165.638C1571.02 167.399 1572.43 168.808 1574.33 169.935C1576.23 171.062 1578.77 171.978 1581.8 172.612C1584.89 173.246 1588.7 173.598 1593.35 173.598H1640.62C1646.11 173.598 1649.77 172.823 1651.46 171.203C1653.23 169.583 1654.07 167.469 1654.07 164.792C1654.07 162.256 1653.23 160.143 1651.46 158.523C1649.7 156.903 1646.11 156.128 1640.62 156.128H1586.59V124.216L1637.38 124.216C1642.87 124.216 1646.53 123.512 1648.22 122.103C1649.99 120.694 1650.83 118.651 1650.83 115.974C1650.83 113.438 1649.99 111.325 1648.22 109.705C1646.46 108.085 1642.87 107.31 1637.38 107.31L1593.35 107.31C1588.7 107.31 1585.04 107.592 1582.29 108.085C1579.54 108.578 1577.43 109.353 1576.02 110.409C1574.61 111.466 1573.55 112.664 1572.92 114.072C1572.28 115.481 1571.79 117.172 1571.37 119.074H1525.79C1526.43 112.523 1527.76 106.324 1529.74 100.547C1531.71 94.7002 1534.88 89.6282 1539.18 85.2606C1543.47 80.8931 1549.11 77.4413 1556.22 74.9758C1563.27 72.5102 1572.14 71.2422 1582.78 71.2422L1652.94 71.2422C1667.03 71.2422 1677.74 74.4122 1684.93 80.8226C1692.11 87.2331 1695.77 95.8977 1695.77 106.746C1695.77 109.705 1695.28 112.734 1694.37 115.763C1693.38 118.863 1692.11 121.751 1690.42 124.498C1688.73 127.246 1686.76 129.711 1684.43 131.824C1682.11 133.938 1679.71 135.558 1677.11 136.755C1681.47 137.883 1685.07 139.785 1687.88 142.461C1690.7 145.068 1692.89 148.027 1694.51 151.197C1696.13 154.437 1697.18 157.677 1697.75 161.129C1698.31 164.511 1698.59 167.469 1698.59 169.864C1698.59 174.091 1697.82 178.529 1696.2 183.108C1694.58 187.757 1691.83 191.984 1687.81 195.999C1683.87 199.944 1678.52 203.255 1671.82 205.791C1665.13 208.327 1656.82 209.665 1646.82 209.665H1582.85V209.595Z" fill="white"/>
<path d="M192.568 109.654L192.568 207.713L146.427 207.713L146.427 109.654L73.0234 109.654V73.0938L265.83 73.0938V109.654H192.568ZM1096.09 73.0938L997.677 134.239L1105.32 207.713L1030.36 207.713L948.647 151.78V207.713H902.506V73.1642H948.647V118.319L1021.35 73.1642L1096.09 73.1642V73.0938ZM894.757 207.713L842.276 207.713L829.174 187.495H728.016L715.124 207.713L662.643 207.713L749.36 73.1642L807.97 73.1642L894.757 207.713ZM750.206 152.907H807.125L778.665 108.668L750.206 152.907ZM471.034 207.713H418.553L405.451 187.495H304.292L291.401 207.713H238.92L325.637 73.1642L384.247 73.1642L471.034 207.713ZM326.412 152.907H383.331L354.872 108.668L326.412 152.907Z" fill="white"/>
<path d="M526.17 119.72C557.783 119.769 589.399 119.783 621.017 119.76C629.848 119.751 638.179 121.501 646.01 125.009C650.591 127.064 654.416 129.447 657.485 132.158C663.224 137.219 666.855 143.554 668.376 151.163C669.462 156.604 669.777 162.446 669.319 168.688C668.93 173.979 668.059 178.406 666.705 181.969C663.921 189.284 659.008 195.105 651.965 199.432C647.329 202.284 642.375 204.4 637.102 205.781C632.24 207.053 626.313 207.695 619.319 207.709C572.809 207.808 526.222 207.858 479.558 207.858C479.439 207.858 479.325 207.811 479.241 207.727C479.157 207.643 479.109 207.529 479.109 207.41V73.6302C479.109 73.5294 479.149 73.4327 479.221 73.3614C479.292 73.2901 479.389 73.25 479.49 73.25L654.49 73.2907C654.616 73.2907 654.737 73.3415 654.827 73.4319C654.916 73.5223 654.966 73.645 654.966 73.7728V107.444C654.966 107.559 654.92 107.669 654.838 107.751C654.757 107.832 654.646 107.878 654.531 107.878L526.428 108C526.336 108.002 526.249 108.039 526.185 108.104C526.12 108.168 526.083 108.255 526.081 108.347L525.837 119.387C525.836 119.43 525.844 119.473 525.86 119.514C525.877 119.554 525.901 119.591 525.932 119.622C525.963 119.653 526 119.677 526.041 119.694C526.082 119.711 526.125 119.72 526.17 119.72ZM622.925 168.348C624.577 166.108 625.084 163.647 624.445 160.968C623.776 158.143 622.067 156.29 619.319 155.407C616.902 154.628 613.788 154.271 609.976 154.334C607.767 154.37 606.638 154.388 606.588 154.388C579.895 154.406 553.184 154.393 526.455 154.348C526.323 154.348 526.197 154.399 526.104 154.491C526.011 154.583 525.959 154.707 525.959 154.837V171.322C525.959 171.423 525.999 171.52 526.07 171.591C526.142 171.662 526.239 171.702 526.339 171.702C555.395 171.702 584.295 171.7 613.039 171.696C615.252 171.696 617.42 171.386 619.543 170.765C620.901 170.372 622.028 169.566 622.925 168.348Z" fill="white"/>
<path fill-rule="evenodd" clip-rule="evenodd" d="M1769 280.721H1750.75L18.2451 280.721H0L0 262.476L0 18.2451L0 0L18.2451 0L1750.75 0L1769 0V18.2451V262.476V280.721ZM18.2451 18.2451L18.2451 262.476L1750.75 262.476V18.2451L18.2451 18.2451Z" fill="white"/>
</svg>
